<?xml version="1.0" encoding="UTF-8" standalone="no"?>
<!DOCTYPE svg PUBLIC "-//W3C//DTD SVG 1.1//EN" "http://www.w3.org/Graphics/SVG/1.1/DTD/svg11.dtd">
<svg width="100%" height="100%" viewBox="0 0 679 601" version="1.1" xmlns="http://www.w3.org/2000/svg" xmlns:xlink="http://www.w3.org/1999/xlink" xml:space="preserve" xmlns:serif="http://www.serif.com/" style="fill-rule:evenodd;clip-rule:evenodd;stroke-linecap:round;stroke-linejoin:round;stroke-miterlimit:1.5;">
    <g id="Artboard1" transform="matrix(1,0,0,1,-77.258,-250.056)">
        <rect x="77.258" y="250.056" width="678.706" height="600.922" style="fill:none;"/>
        <clipPath id="_clip1">
            <rect x="77.258" y="250.056" width="678.706" height="600.922"/>
        </clipPath>
        <g clip-path="url(#_clip1)">
            <g id="logo" transform="matrix(1,0,0,1,0.258,0.0563848)">
                <path d="M230.878,591.046L77.258,526.101C92.695,378.32 217.815,262.95 369.668,262.95C531.939,262.95 663.682,394.693 663.682,556.964C663.682,719.235 531.939,850.978 369.668,850.978C236.671,850.978 124.18,762.48 87.921,641.205L193.953,686.031C203.805,722.765 237.35,749.839 277.169,749.839C324.714,749.839 363.315,711.239 363.315,663.694C363.315,662.462 363.289,661.237 363.238,660.022L457.595,595.606C460.113,595.764 462.655,595.844 465.216,595.844C531.555,595.844 585.414,541.985 585.414,475.646C585.414,409.308 531.555,355.449 465.216,355.449C398.877,355.449 345.018,409.308 345.018,475.646C345.018,480.715 345.333,485.71 345.945,490.623L284.86,577.887C282.325,577.662 279.76,577.548 277.169,577.548C260.138,577.548 244.255,582.5 230.878,591.046ZM262.743,604.517C268.161,602.991 273.879,602.175 279.785,602.175C314.469,602.175 342.628,630.333 342.628,665.017C342.628,699.701 314.469,727.859 279.785,727.859C258.198,727.859 239.139,716.951 227.823,700.351L257.675,712.971C283.567,723.917 313.475,711.783 324.422,685.891C335.368,659.999 323.234,630.091 297.342,619.145L262.743,604.517ZM468.125,399.564C427.621,399.564 394.671,432.908 394.671,474.059C394.671,515.21 427.621,548.554 468.125,548.554C508.629,548.554 541.579,515.21 541.579,474.059C541.579,432.908 508.629,399.564 468.125,399.564ZM468.125,416.218C499.511,416.218 524.926,442.171 524.926,474.059C524.926,505.946 499.511,531.9 468.125,531.9C436.739,531.9 411.325,505.946 411.325,474.059C411.325,442.171 436.739,416.218 468.125,416.218Z" style="fill:white;"/>
            </g>
            <g transform="matrix(1,0,0,1,-1315.7,-159.454)">
                <g id="steam">
                    <g id="copyright-R" serif:id="copyright R">
                        <circle cx="2024.37" cy="457.121" r="43.777" style="fill:none;stroke:white;stroke-width:7.55px;"/>
                        <g transform="matrix(1,0,0,1,0.527025,7.24207)">
                            <text x="2000.99px" y="471.088px" style="font-family:'ArialMT', 'Arial', sans-serif;font-size:64px;fill:white;">R</text>
                        </g>
                    </g>
                </g>
            </g>
        </g>
    </g>
</svg>
