<?xml version="1.0" encoding="utf-8"?>
<!-- Generator: Adobe Illustrator 26.0.1, SVG Export Plug-In . SVG Version: 6.00 Build 0)  -->
<svg version="1.1" id="Layer_2" xmlns="http://www.w3.org/2000/svg" xmlns:xlink="http://www.w3.org/1999/xlink" x="0px" y="0px"
	 viewBox="0 0 1024 1024" style="enable-background:new 0 0 1024 1024;" xml:space="preserve">
<style type="text/css">
	.st0{fill:#8CB7CA;}
	.st1{fill:#FEDF86;}
	.st2{fill:#FFFFFF;}
</style>
<g>
	<path class="st0" d="M1011.78,512.16c-0.12,16.41-1.16,32.75-2.65,49.1c-2.47,26.91-7.27,53.36-14.17,79.43
		c-7.36,27.78-17.15,54.69-29.16,80.83c-12.28,26.74-27.04,52.01-43.81,76.13c-11.8,16.98-24.82,32.97-38.55,48.47
		c-35.31,39.84-76.13,72.87-122.16,99.36c-48.22,27.75-99.69,47.09-154.44,57.44c-21.72,4.1-43.61,6.66-65.68,8.18
		c-17.64,1.21-35.32,1.57-52.85,0.57c-53.01-3.01-104.64-13.23-154.36-32.36c-43.46-16.72-83.93-38.86-121.18-66.75
		c-30.07-22.51-57.3-48.09-81.63-76.8c-28.04-33.08-51.44-69.07-70.22-108.13c-19.5-40.55-33.1-82.98-40.96-127.28
		c-5.18-29.18-8.19-58.53-7.72-88.2c15.91,0.02,31.83,0.05,47.74,0.07c0.69,11.41,1.41,22.82,2.06,34.24
		c0.84,14.74,2.71,29.39,5.33,43.88c9.09,50.25,25.81,97.81,50.92,142.37c27.9,49.49,63.66,92.4,107.56,128.41
		c34.4,28.21,72.26,50.75,113.32,67.94c45.99,19.25,94.02,30.31,143.59,33.52c24.8,1.61,49.83,1.57,74.71-1.51
		c17.46-2.16,34.88-4.51,52.02-8.43c43.72-10,85.24-25.71,124.31-47.95c30.18-17.18,58.24-37.25,83.62-60.84
		c13.36-12.41,26.15-25.49,37.92-39.57c17.03-20.36,32.3-41.83,45.87-64.65c15.37-25.84,27.7-53.03,37.48-81.36
		c9.1-26.35,15.68-53.34,19.43-81.03c2.31-17.03,4.16-34.06,4.84-51.22c0.18-4.65,0.14-9.32,0.21-13.98
		C979.37,512.07,995.58,512.12,1011.78,512.16z"/>
	<path class="st1" d="M59.97,512.23c-15.92-0.02-31.83-0.05-47.74-0.07c-0.47-29.02,2.24-57.8,7.22-86.33
		c9.19-52.67,26.38-102.64,51.7-149.76c18.35-34.15,40.42-65.7,66.06-94.82c31.01-35.23,66.3-65.43,105.81-90.66
		c55.48-35.43,115.6-59.03,180.45-70.66c36.17-6.49,72.61-9.13,109.26-7.55c54.19,2.34,106.75,13,157.49,32.41
		c43.5,16.64,83.92,38.88,121.16,66.77c30.07,22.52,57.29,48.12,81.63,76.83c28.92,34.12,52.93,71.32,71.9,111.78
		c19.31,41.18,32.73,84.19,40.11,129.1c4.51,27.45,7.2,55.03,6.75,82.88c-16.2-0.04-32.4-0.09-48.61-0.13
		c-0.11-14.64-0.67-29.24-2.04-43.85c-2.87-30.73-8.83-60.82-18.11-90.21c-25.66-81.31-70.53-150.14-134.74-206.32
		c-37.03-32.4-78.37-57.86-123.74-76.79C636.99,75.03,587.37,63.9,536,61.31c-30.76-1.55-61.48-0.2-92.06,4.52
		c-41.52,6.4-81.43,18.04-119.54,35.6c-54.77,25.24-102.79,59.86-143.77,104.24c-25.32,27.42-47.08,57.38-64.86,90.14
		c-35.65,65.66-54.22,135.86-54.87,210.68C60.89,508.42,61.53,510.53,59.97,512.23z"/>
	<path class="st1" d="M240.05,511.71c-0.04-32.52,25.85-58.7,58.04-58.69c31.95,0.01,57.9,26.12,57.94,58.28
		c0.04,32.54-25.83,58.7-58.03,58.69C266.06,569.98,240.1,543.86,240.05,511.71z"/>
	<g>
		<path class="st2" d="M427.83,325.8c6.08,0,11.74,1.16,16.97,3.47c5.23,2.32,9.86,5.47,13.87,9.49s7.17,8.7,9.49,14.05
			c2.31,5.35,3.47,11.08,3.47,17.15v189.8c0,41.86-11.44,74.22-34.31,97.09c-11.2,11.2-24.82,19.65-40.88,25.37
			c-16.06,5.72-33.95,8.58-53.66,8.58c-13.63,0-26.41-1.52-38.32-4.56c-11.93-3.04-23.36-7.36-34.31-12.96
			c-5.6-2.92-10.71-6.21-15.33-9.86c-4.87-3.4-8.7-7.67-11.5-12.77c-2.8-5.11-4.51-10.4-5.11-15.88
			c-0.61-5.47-0.06-11.01,1.64-16.61c1.7-5.59,4.62-10.58,8.76-14.96l0.73-0.73c3.4-3.89,7.36-6.93,11.86-9.12
			c4.5-2.19,9.24-3.52,14.23-4.01c4.98-0.48,9.91-0.06,14.78,1.28c4.86,1.34,9.49,3.47,13.87,6.39c1.94,1.46,3.89,2.8,5.84,4.01
			c1.94,1.22,3.89,2.19,5.84,2.92c4.13,1.71,8.27,3.05,12.41,4.02c4.13,0.97,8.27,1.46,12.41,1.46c27.98,0,41.97-17.64,41.97-52.92
			V369.97c0-6.08,1.15-11.8,3.47-17.15c2.31-5.35,5.47-10.04,9.49-14.05c4.01-4.02,8.7-7.17,14.05-9.49
			c5.35-2.31,11.07-3.47,17.16-3.47H427.83z"/>
		<path class="st2" d="M768,624.74c4.87,7.06,7.36,14.48,7.48,22.26c0.12,7.79-1.52,14.91-4.93,21.35
			c-3.41,6.45-8.4,11.81-14.97,16.06c-6.57,4.25-14,6.39-22.26,6.39h-1.09c-7.06,0-13.69-1.64-19.89-4.93
			c-6.21-3.29-11.26-7.85-15.15-13.69l-63.88-94.9h-53.29V647c0,6.08-1.16,11.74-3.47,16.97c-2.32,5.24-5.47,9.85-9.49,13.87
			c-4.01,4.01-8.64,7.18-13.87,9.49c-5.24,2.31-10.89,3.47-16.97,3.47h-0.73c-6.08,0-11.74-1.16-16.97-3.47
			c-5.24-2.31-9.85-5.48-13.87-9.49c-4.01-4.02-7.18-8.63-9.49-13.87c-2.32-5.23-3.47-10.89-3.47-16.97V369.6
			c0-6.08,1.15-11.74,3.47-16.97c2.31-5.23,5.47-9.85,9.49-13.87c4.02-4.02,8.63-7.17,13.87-9.49c5.23-2.31,10.89-3.47,16.97-3.47
			h123.37c22.87,0,43.37,3.17,61.5,9.49c18.12,6.33,33.4,15.69,45.81,28.1c21.17,21.17,31.75,49.64,31.75,85.41
			c0,26.53-6.02,49.64-18.07,69.35c-12.05,19.71-30.11,34.67-54.2,44.89L768,624.74z M708.51,452.09c0-9.97-1.95-17.94-5.84-23.91
			c-3.89-5.96-8.7-10.58-14.42-13.87c-5.72-3.29-11.81-5.41-18.25-6.39c-6.45-0.97-12.35-1.46-17.7-1.46h-72.27v91.62h73.73
			c17.52,0,31.03-3.95,40.52-11.86c9.49-7.9,14.23-18.92,14.23-33.03V452.09z"/>
	</g>
</g>
</svg>
